<svg xmlns="http://www.w3.org/2000/svg" xmlns:xlink="http://www.w3.org/1999/xlink" width="500" zoomAndPan="magnify" viewBox="0 0 375 374.999991" height="500" preserveAspectRatio="xMidYMid meet" version="1.0"><defs><clipPath id="2b16593ca3"><path d="M 228.300781 32.699219 C 242.625 36.226562 256.050781 42.148438 268.425781 49.050781 L 298.574219 36.226562 C 313.949219 47.550781 327.226562 61.5 338.699219 76.800781 L 325.875 106.5 C 333.300781 118.949219 338.699219 132.75 342.75 147.074219 L 372.898438 159 C 374.398438 168.449219 374.925781 177.824219 374.925781 187.648438 C 374.925781 197.101562 374.398438 206.476562 372.898438 215.925781 L 342.75 228.375 C 338.851562 242.324219 333.300781 256.125 325.875 268.5 L 338.699219 298.648438 C 327.375 314.023438 313.949219 327.300781 298.574219 338.773438 L 268.425781 325.949219 C 255.976562 333.375 242.773438 338.773438 228.300781 342.824219 L 215.851562 372.976562 C 206.398438 374.476562 197.023438 375 187.574219 375 C 177.675781 375 168.226562 374.476562 158.925781 372.976562 L 147 342.824219 C 132.675781 338.925781 119.25 333.375 106.875 325.949219 L 76.726562 338.773438 C 61.351562 327.449219 47.550781 314.023438 36.601562 298.648438 L 48.976562 268.5 C 42.074219 256.050781 36.148438 242.25 32.625 228.375 L 2.476562 215.925781 C 0.976562 206.476562 0.0742188 197.101562 0.0742188 187.648438 C 0.0742188 177.75 1.050781 168.300781 2.476562 159 L 32.625 147.074219 C 36.148438 132.75 42.074219 118.800781 48.976562 106.5 L 36.523438 76.726562 C 47.476562 61.351562 61.273438 47.550781 76.648438 36.148438 L 106.800781 48.976562 C 119.25 42.074219 132.449219 36.148438 146.925781 32.625 L 158.851562 1.949219 C 168.375 0.523438 177.675781 0 187.574219 0 C 197.023438 0 206.398438 0.523438 215.851562 2.023438 Z M 251.550781 144.074219 C 260.476562 192.601562 193.574219 224.25 197.101562 249.148438 C 199.125 265.5 218.476562 264.976562 232.273438 261.976562 C 254.023438 246.601562 268.351562 221.398438 268.351562 192.601562 C 268.273438 178.273438 261.375 161.398438 251.550781 144.074219 Z M 182.175781 117.898438 C 232.199219 107.476562 196.125 69.375 183.148438 49.648438 C 168.300781 71.925781 125.175781 119.398438 106.875 159.523438 C 122.25 140.625 150.375 124.800781 182.175781 117.898438 Z M 220.800781 99.074219 C 226.726562 139.199219 179.699219 145.199219 136.199219 172.875 C 85.648438 205.574219 117.824219 277.351562 183.226562 277.351562 C 189.148438 277.351562 195.148438 276.824219 201.074219 275.851562 C 80.773438 256.5 265.050781 172.875 240.675781 127.273438 C 234.601562 117.375 227.699219 108 220.800781 99.074219 Z M 228.300781 76.800781 C 244.648438 82.726562 258.976562 92.175781 270.898438 103.949219 C 288.75 122.324219 301.050781 146.023438 304.574219 172.726562 L 314.023438 172.726562 L 314.023438 184.050781 L 276.824219 184.050781 L 276.824219 172.726562 L 286.726562 172.726562 C 283.199219 150.976562 273.375 131.101562 258.449219 116.773438 C 257.476562 115.800781 256.949219 115.273438 256.050781 114.375 C 254.550781 111.976562 253.050781 109.949219 251.625 107.476562 C 244.050781 97.050781 236.101562 87.226562 228.300781 76.800781 Z M 276.675781 190.574219 L 313.875 190.574219 L 313.875 202.5 L 304.425781 202.5 C 300.898438 228.75 288.601562 252.523438 270.75 270.75 C 249.375 292.125 219.75 304.949219 187.574219 304.949219 C 154.875 304.949219 125.625 292.125 104.398438 270.75 C 86.023438 252.375 74.324219 228.75 70.800781 202.5 L 60.898438 202.5 L 60.898438 190.574219 L 98.101562 190.574219 L 98.101562 202.5 L 88.648438 202.5 C 91.648438 223.875 102 243.601562 116.925781 258.449219 C 134.773438 276.300781 160.050781 287.625 187.726562 287.625 C 215.476562 287.625 240.148438 276.300781 258.523438 258.449219 C 273.375 243.601562 283.273438 223.875 286.800781 202.5 L 276.898438 202.5 L 276.898438 190.574219 Z M 60.75 172.800781 L 70.648438 172.800781 C 74.175781 146.023438 86.023438 122.25 104.324219 104.023438 C 116.25 92.101562 130.574219 82.648438 146.398438 76.875 C 137.476562 88.800781 127.574219 101.625 118.648438 114.449219 C 118.125 115.425781 117.148438 115.949219 116.625 116.851562 C 101.773438 131.175781 91.351562 151.050781 88.351562 172.800781 L 97.800781 172.800781 L 97.800781 184.125 L 60.601562 184.125 L 60.601562 172.800781 Z M 167.324219 50.023438 C 169.351562 47.023438 171.226562 44.625 173.25 41.625 L 187.574219 20.25 L 201.523438 41.625 C 203.550781 44.625 205.425781 47.023438 207.449219 50.023438 C 274.800781 59.925781 326.25 117.375 326.25 187.648438 C 326.25 263.925781 264.300781 326.324219 187.574219 326.324219 C 110.851562 326.324219 48.449219 263.851562 48.449219 187.648438 C 48.449219 117.375 100.351562 59.851562 167.324219 50.023438 Z M 167.324219 50.023438 " clip-rule="nonzero"/></clipPath><linearGradient x1="9067.815805" gradientTransform="matrix(0.04983, 0, 0, 0.04983, -89.510987, -81.299988)" y1="9379.699351" x2="2047.165157" gradientUnits="userSpaceOnUse" y2="1411.854373" id="16d316e87f"><stop stop-opacity="1" stop-color="rgb(6.698608%, 35.299683%, 62.399292%)" offset="0"/><stop stop-opacity="1" stop-color="rgb(6.698608%, 35.299683%, 62.399292%)" offset="0.125"/><stop stop-opacity="1" stop-color="rgb(6.698608%, 35.299683%, 62.399292%)" offset="0.1875"/><stop stop-opacity="1" stop-color="rgb(6.718445%, 35.427856%, 62.461853%)" offset="0.195312"/><stop stop-opacity="1" stop-color="rgb(6.767273%, 35.748291%, 62.62207%)" offset="0.203125"/><stop stop-opacity="1" stop-color="rgb(6.826782%, 36.132812%, 62.812805%)" offset="0.210938"/><stop stop-opacity="1" stop-color="rgb(6.886292%, 36.51886%, 63.005066%)" offset="0.21875"/><stop stop-opacity="1" stop-color="rgb(6.945801%, 36.904907%, 63.195801%)" offset="0.226563"/><stop stop-opacity="1" stop-color="rgb(7.003784%, 37.289429%, 63.388062%)" offset="0.234375"/><stop stop-opacity="1" stop-color="rgb(7.063293%, 37.675476%, 63.580322%)" offset="0.242188"/><stop stop-opacity="1" stop-color="rgb(7.122803%, 38.061523%, 63.771057%)" offset="0.25"/><stop stop-opacity="1" stop-color="rgb(7.182312%, 38.447571%, 63.963318%)" offset="0.257812"/><stop stop-opacity="1" stop-color="rgb(7.241821%, 38.832092%, 64.154053%)" offset="0.265625"/><stop stop-opacity="1" stop-color="rgb(7.301331%, 39.21814%, 64.346313%)" offset="0.273438"/><stop stop-opacity="1" stop-color="rgb(7.359314%, 39.604187%, 64.537048%)" offset="0.28125"/><stop stop-opacity="1" stop-color="rgb(7.418823%, 39.988708%, 64.729309%)" offset="0.289063"/><stop stop-opacity="1" stop-color="rgb(7.478333%, 40.374756%, 64.920044%)" offset="0.296875"/><stop stop-opacity="1" stop-color="rgb(7.537842%, 40.760803%, 65.112305%)" offset="0.304688"/><stop stop-opacity="1" stop-color="rgb(7.597351%, 41.146851%, 65.30304%)" offset="0.3125"/><stop stop-opacity="1" stop-color="rgb(7.655334%, 41.531372%, 65.4953%)" offset="0.320313"/><stop stop-opacity="1" stop-color="rgb(7.714844%, 41.917419%, 65.686035%)" offset="0.328125"/><stop stop-opacity="1" stop-color="rgb(7.774353%, 42.303467%, 65.878296%)" offset="0.335938"/><stop stop-opacity="1" stop-color="rgb(7.833862%, 42.687988%, 66.069031%)" offset="0.34375"/><stop stop-opacity="1" stop-color="rgb(7.893372%, 43.074036%, 66.261292%)" offset="0.351562"/><stop stop-opacity="1" stop-color="rgb(7.952881%, 43.460083%, 66.452026%)" offset="0.359375"/><stop stop-opacity="1" stop-color="rgb(8.010864%, 43.84613%, 66.644287%)" offset="0.367188"/><stop stop-opacity="1" stop-color="rgb(8.070374%, 44.230652%, 66.836548%)" offset="0.375"/><stop stop-opacity="1" stop-color="rgb(8.129883%, 44.616699%, 67.027283%)" offset="0.382812"/><stop stop-opacity="1" stop-color="rgb(8.189392%, 45.002747%, 67.219543%)" offset="0.390625"/><stop stop-opacity="1" stop-color="rgb(8.248901%, 45.387268%, 67.410278%)" offset="0.398438"/><stop stop-opacity="1" stop-color="rgb(8.306885%, 45.773315%, 67.602539%)" offset="0.40625"/><stop stop-opacity="1" stop-color="rgb(8.366394%, 46.159363%, 67.793274%)" offset="0.414063"/><stop stop-opacity="1" stop-color="rgb(8.425903%, 46.54541%, 67.985535%)" offset="0.421875"/><stop stop-opacity="1" stop-color="rgb(8.485413%, 46.929932%, 68.17627%)" offset="0.429688"/><stop stop-opacity="1" stop-color="rgb(8.544922%, 47.315979%, 68.36853%)" offset="0.4375"/><stop stop-opacity="1" stop-color="rgb(8.602905%, 47.702026%, 68.559265%)" offset="0.445312"/><stop stop-opacity="1" stop-color="rgb(8.662415%, 48.086548%, 68.751526%)" offset="0.453125"/><stop stop-opacity="1" stop-color="rgb(8.721924%, 48.472595%, 68.942261%)" offset="0.460938"/><stop stop-opacity="1" stop-color="rgb(8.781433%, 48.858643%, 69.134521%)" offset="0.468303"/><stop stop-opacity="1" stop-color="rgb(8.811951%, 49.052429%, 69.230652%)" offset="0.46875"/><stop stop-opacity="1" stop-color="rgb(8.840942%, 49.24469%, 69.325256%)" offset="0.476563"/><stop stop-opacity="1" stop-color="rgb(8.900452%, 49.629211%, 69.517517%)" offset="0.484375"/><stop stop-opacity="1" stop-color="rgb(8.958435%, 50.015259%, 69.709778%)" offset="0.492188"/><stop stop-opacity="1" stop-color="rgb(9.017944%, 50.401306%, 69.900513%)" offset="0.5"/><stop stop-opacity="1" stop-color="rgb(9.077454%, 50.785828%, 70.092773%)" offset="0.507812"/><stop stop-opacity="1" stop-color="rgb(9.136963%, 51.171875%, 70.283508%)" offset="0.515625"/><stop stop-opacity="1" stop-color="rgb(9.196472%, 51.557922%, 70.475769%)" offset="0.523437"/><stop stop-opacity="1" stop-color="rgb(9.254456%, 51.94397%, 70.666504%)" offset="0.53125"/><stop stop-opacity="1" stop-color="rgb(9.313965%, 52.328491%, 70.858765%)" offset="0.531697"/><stop stop-opacity="1" stop-color="rgb(9.344482%, 52.522278%, 70.954895%)" offset="0.539062"/><stop stop-opacity="1" stop-color="rgb(9.373474%, 52.714539%, 71.0495%)" offset="0.546875"/><stop stop-opacity="1" stop-color="rgb(9.432983%, 53.100586%, 71.24176%)" offset="0.554688"/><stop stop-opacity="1" stop-color="rgb(9.492493%, 53.485107%, 71.432495%)" offset="0.5625"/><stop stop-opacity="1" stop-color="rgb(9.552002%, 53.871155%, 71.624756%)" offset="0.570312"/><stop stop-opacity="1" stop-color="rgb(9.609985%, 54.257202%, 71.815491%)" offset="0.578125"/><stop stop-opacity="1" stop-color="rgb(9.669495%, 54.64325%, 72.007751%)" offset="0.585937"/><stop stop-opacity="1" stop-color="rgb(9.729004%, 55.027771%, 72.198486%)" offset="0.59375"/><stop stop-opacity="1" stop-color="rgb(9.788513%, 55.413818%, 72.390747%)" offset="0.601562"/><stop stop-opacity="1" stop-color="rgb(9.848022%, 55.799866%, 72.583008%)" offset="0.609375"/><stop stop-opacity="1" stop-color="rgb(9.906006%, 56.184387%, 72.773743%)" offset="0.617188"/><stop stop-opacity="1" stop-color="rgb(9.965515%, 56.570435%, 72.966003%)" offset="0.625"/><stop stop-opacity="1" stop-color="rgb(10.025024%, 56.956482%, 73.156738%)" offset="0.632812"/><stop stop-opacity="1" stop-color="rgb(10.084534%, 57.342529%, 73.348999%)" offset="0.640625"/><stop stop-opacity="1" stop-color="rgb(10.144043%, 57.727051%, 73.539734%)" offset="0.648437"/><stop stop-opacity="1" stop-color="rgb(10.203552%, 58.113098%, 73.731995%)" offset="0.65625"/><stop stop-opacity="1" stop-color="rgb(10.261536%, 58.499146%, 73.922729%)" offset="0.664062"/><stop stop-opacity="1" stop-color="rgb(10.321045%, 58.883667%, 74.11499%)" offset="0.671875"/><stop stop-opacity="1" stop-color="rgb(10.380554%, 59.269714%, 74.305725%)" offset="0.679688"/><stop stop-opacity="1" stop-color="rgb(10.440063%, 59.655762%, 74.497986%)" offset="0.6875"/><stop stop-opacity="1" stop-color="rgb(10.499573%, 60.041809%, 74.688721%)" offset="0.695312"/><stop stop-opacity="1" stop-color="rgb(10.557556%, 60.426331%, 74.880981%)" offset="0.703125"/><stop stop-opacity="1" stop-color="rgb(10.617065%, 60.812378%, 75.071716%)" offset="0.710938"/><stop stop-opacity="1" stop-color="rgb(10.676575%, 61.198425%, 75.263977%)" offset="0.71875"/><stop stop-opacity="1" stop-color="rgb(10.736084%, 61.582947%, 75.454712%)" offset="0.726562"/><stop stop-opacity="1" stop-color="rgb(10.795593%, 61.968994%, 75.646973%)" offset="0.734375"/><stop stop-opacity="1" stop-color="rgb(10.853577%, 62.355042%, 75.839233%)" offset="0.742188"/><stop stop-opacity="1" stop-color="rgb(10.913086%, 62.741089%, 76.029968%)" offset="0.75"/><stop stop-opacity="1" stop-color="rgb(10.972595%, 63.12561%, 76.222229%)" offset="0.757812"/><stop stop-opacity="1" stop-color="rgb(11.032104%, 63.511658%, 76.412964%)" offset="0.765625"/><stop stop-opacity="1" stop-color="rgb(11.091614%, 63.897705%, 76.605225%)" offset="0.773438"/><stop stop-opacity="1" stop-color="rgb(11.151123%, 64.282227%, 76.795959%)" offset="0.78125"/><stop stop-opacity="1" stop-color="rgb(11.209106%, 64.668274%, 76.98822%)" offset="0.789062"/><stop stop-opacity="1" stop-color="rgb(11.268616%, 65.054321%, 77.178955%)" offset="0.796875"/><stop stop-opacity="1" stop-color="rgb(11.328125%, 65.440369%, 77.371216%)" offset="0.804688"/><stop stop-opacity="1" stop-color="rgb(11.378479%, 65.765381%, 77.532959%)" offset="0.8125"/><stop stop-opacity="1" stop-color="rgb(11.399841%, 65.899658%, 77.598572%)" offset="0.875"/><stop stop-opacity="1" stop-color="rgb(11.399841%, 65.899658%, 77.598572%)" offset="1"/></linearGradient></defs><g clip-path="url(#2b16593ca3)"><path fill="url(#16d316e87f)" d="M 0.0742188 0 L 0.0742188 375 L 374.925781 375 L 374.925781 0 Z M 0.0742188 0 " fill-rule="nonzero"/></g><path fill="#ffffff" d="M 70.800781 172.800781 C 74.324219 146.023438 86.175781 122.25 104.476562 104.023438 C 116.398438 92.101562 130.726562 82.648438 146.550781 76.875 C 137.625 88.800781 127.726562 101.625 118.800781 114.449219 L 116.773438 116.851562 C 101.925781 131.175781 91.5 151.050781 88.5 172.800781 L 97.949219 172.800781 L 97.949219 184.125 L 60.75 184.125 L 60.75 172.800781 C 60.75 172.800781 70.800781 172.800781 70.800781 172.800781 Z M 106.875 159.375 C 125.25 119.25 168.226562 71.773438 183.148438 49.5 C 195.976562 69.375 232.199219 107.476562 182.175781 117.75 C 150.375 124.800781 122.25 140.625 106.875 159.375 Z M 136.050781 172.800781 C 179.550781 145.050781 226.648438 139.125 220.648438 99 C 227.550781 107.925781 234.601562 117.375 240.523438 127.273438 C 264.75 172.800781 80.625 256.5 200.925781 275.851562 C 195 276.824219 189 277.351562 183.074219 277.351562 C 117.824219 277.273438 85.648438 205.5 136.050781 172.800781 Z M 197.023438 249 C 193.5 224.25 260.398438 192.523438 251.476562 143.925781 C 261.375 161.25 268.351562 178.125 268.351562 192.449219 C 268.351562 221.101562 254.023438 246.375 232.273438 261.824219 C 218.25 264.976562 198.898438 265.351562 197.023438 249 Z M 276.675781 202.5 L 276.675781 190.574219 L 313.875 190.574219 L 313.875 202.5 L 304.425781 202.5 C 300.898438 228.75 288.601562 252.523438 270.75 270.75 C 249.375 292.125 219.75 304.949219 187.574219 304.949219 C 154.875 304.949219 125.625 292.125 104.398438 270.75 C 86.023438 252.375 74.324219 228.75 70.800781 202.5 L 60.898438 202.5 L 60.898438 190.574219 L 98.101562 190.574219 L 98.101562 202.5 L 88.648438 202.5 C 91.648438 223.875 102 243.601562 116.925781 258.449219 C 134.773438 276.300781 160.050781 287.625 187.726562 287.625 C 215.476562 287.625 240.148438 276.300781 258.523438 258.449219 C 273.375 243.601562 283.273438 223.875 286.800781 202.5 Z M 187.574219 326.324219 C 264.375 326.324219 326.25 263.851562 326.25 187.648438 C 326.25 117.375 274.726562 59.925781 207.449219 50.023438 C 205.425781 47.023438 203.550781 44.625 201.523438 41.625 L 187.574219 20.25 L 173.25 41.625 C 171.226562 44.625 169.351562 47.023438 167.324219 50.023438 C 100.351562 59.851562 48.449219 117.375 48.449219 187.648438 C 48.449219 263.851562 110.773438 326.324219 187.574219 326.324219 Z M 251.550781 107.476562 C 244.125 97.050781 236.175781 87.226562 228.300781 76.800781 C 244.648438 82.726562 258.976562 92.175781 270.898438 103.949219 C 288.75 122.324219 301.050781 146.023438 304.574219 172.726562 L 314.023438 172.726562 L 314.023438 184.050781 L 276.824219 184.050781 L 276.824219 172.726562 L 286.726562 172.726562 C 283.199219 150.976562 273.375 131.101562 258.449219 116.773438 L 256.050781 114.375 Z M 251.550781 107.476562 " fill-opacity="1" fill-rule="nonzero"/></svg>